<svg height="512" viewBox="0 0 64 64" width="512" xmlns="http://www.w3.org/2000/svg"><g id="car_store" data-name="car store"><path d="m28 10h21a12 12 0 0 1 12 12v2a0 0 0 0 1 0 0h-33a0 0 0 0 1 0 0v-14a0 0 0 0 1 0 0z" fill="#ffde55"/><circle cx="48" cy="24" fill="#c6c5ca" r="5"/><path d="m46 10h-18v-7c9.94 0 18 7 18 7z" fill="#57a4ff"/><path d="m28 10h3v4h-3z" fill="#ff7956"/><path d="m28 10v14h-21l-4-6v-6a2.006 2.006 0 0 1 2-2z" fill="#ffde55"/><path d="m61 22v2h-4v-2a12 12 0 0 0 -12-12h4a12 12 0 0 1 12 12z" fill="#ebbf00"/><path d="m58.4 15h-6.4l-3-3h6.94a11.1 11.1 0 0 1 .97.97 11.4 11.4 0 0 1 1.49 2.03z" fill="#ff7956"/><path d="m58.4 15h-3.65a12 12 0 0 0 -3.11-3h4a10.924 10.924 0 0 1 1.27.97 11.4 11.4 0 0 1 1.49 2.03z" fill="#ff5023"/><path d="m24 10h4v14h-4z" fill="#ebbf00"/><path d="m28 3v7h-18s8.06-7 18-7z" fill="#2488ff"/><circle cx="17" cy="24" fill="#c6c5ca" r="5"/><path d="m53 24a5 5 0 0 1 -5 5 5.106 5.106 0 0 1 -2-.41 5.011 5.011 0 0 0 0-9.18 5.106 5.106 0 0 1 2-.41 5 5 0 0 1 5 5z" fill="#898890"/><path d="m22 24a5 5 0 0 1 -5 5 5.106 5.106 0 0 1 -2-.41 5.011 5.011 0 0 0 0-9.18 5.106 5.106 0 0 1 2-.41 5 5 0 0 1 5 5z" fill="#898890"/><path d="m8 12-1 3h-4v-3z" fill="#ff7956"/><path d="m48 31h13a3.995 3.995 0 0 1 -4 4h-50a4 4 0 0 1 -4-4z" fill="#57a4ff"/><path d="m27.84 50h9.16l13.33-3.04 3.53-1.04a2.4 2.4 0 0 1 .69-.1 2.451 2.451 0 0 1 .82 4.76l-.79.24h-.03a2.4 2.4 0 0 0 -.69.1l-13.86 4.08h-8l-9-5z" fill="#ffc477"/><path d="m57 53.27a2.448 2.448 0 0 1 -1.63 2.31l-15.37 5.42h-15l-12-4h-4v-13l5-2h6l9.05 1.81 5.95 1.19 1.32 1.32.68.68v3h-14l9 5h8l13.86-4.08a2.4 2.4 0 0 1 .69-.1h.03a2.454 2.454 0 0 1 2.42 2.45z" fill="#ffdaaa"/><g fill="#ffc477"><path d="m57 53.27a2.448 2.448 0 0 1 -1.63 2.31l-15.37 5.42h-15l-12-4h-4v-3h4l12 4h15l15.37-5.42a2.259 2.259 0 0 0 1.11-.82 2.441 2.441 0 0 1 .52 1.51z"/><path d="m51 45.27a2.46 2.46 0 0 1 -.67 1.69l-13.33 3.04v-3l-.68-.68 5.13-1.51 6.41-1.89a2.4 2.4 0 0 1 .69-.1 2.454 2.454 0 0 1 2.45 2.45z"/><path d="m42 43.27a2.416 2.416 0 0 1 -.55 1.54l-5.13 1.51-1.32-1.32-5.95-1.19 9.81-2.89a2.4 2.4 0 0 1 .69-.1 2.454 2.454 0 0 1 2.45 2.45z"/></g><path d="m9 57v2l-6 2v-22l6 2v3z" fill="#00d7df"/><path d="m49 9h-2.64c-1.53-1.25-9.07-7-18.36-7s-16.82 5.75-18.36 7h-4.64a3.009 3.009 0 0 0 -3 3v6a.967.967 0 0 0 .17.55l4 6a1 1 0 0 0 .83.45h4.09a5.993 5.993 0 0 0 11.82 0h19.18a5.993 5.993 0 0 0 11.82 0h7.09a1 1 0 0 0 1-1v-2a13.012 13.012 0 0 0 -13-13zm0 2a10.982 10.982 0 0 1 7.53 3h-5.12l-3-3zm-45 1a1 1 0 0 1 1-1h2.52l-1.2 3h-2.32zm13 16a4 4 0 1 1 4-4 4 4 0 0 1 -4 4zm10-5h-4.09a5.993 5.993 0 0 0 -11.82 0h-3.55l-3.54-5.3v-1.7h3a1 1 0 0 0 .93-.63l1.75-4.37h17.32zm-13.94-14c3.03-2 8.62-5 14.94-5s11.91 3 14.94 5zm19.94 2v1a1 1 0 0 1 -1 1h-3v-2zm15 17a4 4 0 1 1 4-4 4 4 0 0 1 -4 4zm12-5h-6.09a5.993 5.993 0 0 0 -11.82 0h-13.09v-8h3a3.009 3.009 0 0 0 3-3v-1h10.59l4.7 4.71a1.033 1.033 0 0 0 .71.29h7.21a10.937 10.937 0 0 1 1.79 6z"/><path d="m58 48.27a3.448 3.448 0 0 0 -4.42-3.31l-1.6.47a.875.875 0 0 0 .02-.16 3.448 3.448 0 0 0 -4.42-3.31l-4.58 1.35v-.04a3.448 3.448 0 0 0 -4.42-3.31l-9.58 2.82-8.8-1.76a1.355 1.355 0 0 0 -.2-.02h-6a.937.937 0 0 0 -.37.07l-3.63 1.45v-1.52a1.014 1.014 0 0 0 -.68-.95l-6-2a1 1 0 0 0 -.9.14.983.983 0 0 0 -.42.81v22a.983.983 0 0 0 .42.81.939.939 0 0 0 .58.19 1.185 1.185 0 0 0 .32-.05l6-2a1.014 1.014 0 0 0 .68-.95v-1h2.84l11.84 3.95a1.185 1.185 0 0 0 .32.05h15a.919.919 0 0 0 .33-.06l15.37-5.42a3.449 3.449 0 0 0 2.3-3.25 3.407 3.407 0 0 0 -1.1-2.49 3.456 3.456 0 0 0 1.1-2.51zm-50 10.01-4 1.33v-19.22l4 1.33zm40.15-14.4a1.29 1.29 0 0 1 .4-.06 1.418 1.418 0 0 1 1.18 2.25l-11.73 2.68v-1.75c0-.04-.02-.08-.02-.13zm-9-2a1.29 1.29 0 0 1 .4-.06 1.451 1.451 0 0 1 1.45 1.45 1.415 1.415 0 0 1 -.2.69l-4.19 1.23-.9-.9a1.014 1.014 0 0 0 -.51-.27l-1.98-.4zm15.89 12.75-15.21 5.37h-14.67l-11.84-3.95a1.185 1.185 0 0 0 -.32-.05h-3v-11.32l4.19-1.68h5.71l14.61 2.92 1.49 1.49v1.59h-13a1 1 0 0 0 -.49 1.87l9 5a.947.947 0 0 0 .49.13h8a.863.863 0 0 0 .28-.04l13.87-4.08a1.446 1.446 0 0 1 .89 2.75zm.04-5.01-.67.21a3.341 3.341 0 0 0 -.83.13l-13.72 4.04h-7.6l-4.95-2.75.7-.25h8.99a1.435 1.435 0 0 0 .22-.04v.02l13.39-3.06 3.54-1.04a1.29 1.29 0 0 1 .4-.06 1.451 1.451 0 0 1 1.45 1.45 1.421 1.421 0 0 1 -.92 1.35z"/><path d="m61 30h-58a1 1 0 0 0 -1 1 5 5 0 0 0 5 5h50a5 5 0 0 0 5-5 1 1 0 0 0 -1-1zm-4 4h-50a3.014 3.014 0 0 1 -2.83-2h55.66a3.014 3.014 0 0 1 -2.83 2z"/></g></svg>